<mxfile host="Electron" modified="2023-09-21T12:48:54.909Z" agent="Mozilla/5.0 (X11; Linux x86_64) AppleWebKit/537.36 (KHTML, like Gecko) draw.io/21.3.7 Chrome/112.0.5615.204 Electron/24.5.0 Safari/537.36" etag="NxpBFjYy-jufvxu4jzWl" version="21.3.7" type="device" pages="2">
  <diagram id="3228e29e-7158-1315-38df-8450db1d8a1d" name="Page-1">
    <mxGraphModel dx="1434" dy="875" grid="1" gridSize="10" guides="1" tooltips="1" connect="1" arrows="1" fold="1" page="1" pageScale="1" pageWidth="1169" pageHeight="827" background="none" math="0" shadow="0">
      <root>
        <mxCell id="0" />
        <mxCell id="1" parent="0" />
        <mxCell id="21531" value="" style="ellipse;fillColor=#277DA1;opacity=60;strokeColor=none;html=1;fontColor=#FFFFFF;" parent="1" vertex="1">
          <mxGeometry x="339.5" y="308.5" width="500" height="500" as="geometry" />
        </mxCell>
        <mxCell id="21532" value="" style="ellipse;fillColor=#F8961E;opacity=60;strokeColor=none;html=1;fontColor=#FFFFFF;" parent="1" vertex="1">
          <mxGeometry x="179.5" y="18.5" width="500" height="500" as="geometry" />
        </mxCell>
        <mxCell id="21533" value="" style="ellipse;fillColor=#43AA8B;opacity=60;strokeColor=none;html=1;fontColor=#FFFFFF;" parent="1" vertex="1">
          <mxGeometry x="489.5" y="18.5" width="500" height="500" as="geometry" />
        </mxCell>
        <mxCell id="21534" value="&lt;span style=&quot;font-size: 26px;&quot;&gt;&quot;Coisas&quot;&lt;/span&gt;" style="text;fontSize=26;align=center;verticalAlign=middle;html=1;fontColor=#FFFFFF;fontFamily=Helvetica;fontStyle=1" parent="1" vertex="1">
          <mxGeometry x="334.5" y="18.5" width="190" height="70" as="geometry" />
        </mxCell>
        <mxCell id="21535" value="&lt;span style=&quot;font-size: 26px;&quot;&gt;Semântica&lt;/span&gt;" style="text;fontSize=26;align=center;verticalAlign=middle;html=1;fontColor=#FFFFFF;fontFamily=Helvetica;fontStyle=1" parent="1" vertex="1">
          <mxGeometry x="644.5" y="18.5" width="190" height="70" as="geometry" />
        </mxCell>
        <mxCell id="21536" value="&lt;span style=&quot;font-size: 26px;&quot;&gt;&quot;Internet&quot;&lt;/span&gt;" style="text;fontSize=26;align=center;verticalAlign=middle;html=1;fontColor=#FFFFFF;fontFamily=Helvetica;fontStyle=1" parent="1" vertex="1">
          <mxGeometry x="489.25" y="738.5" width="190" height="70" as="geometry" />
        </mxCell>
        <mxCell id="21540" value="&lt;span&gt;&lt;font style=&quot;font-size: 44px;&quot;&gt;IoT&lt;/font&gt;&lt;/span&gt;" style="text;align=center;html=1;fontColor=#FFFFFF;fontSize=16;strokeColor=none;fontStyle=1;fontFamily=Helvetica;" parent="1" vertex="1">
          <mxGeometry x="544" y="340" width="80.5" height="60" as="geometry" />
        </mxCell>
        <mxCell id="K1vJpyjOpzzqGWFiFT8--21540" value="RFID" style="ellipse;whiteSpace=wrap;html=1;strokeColor=#F8961E;fontSize=18;fontFamily=Garamond;" parent="1" vertex="1">
          <mxGeometry x="309.5" y="80" width="100" height="50" as="geometry" />
        </mxCell>
        <mxCell id="K1vJpyjOpzzqGWFiFT8--21541" value="UID" style="ellipse;whiteSpace=wrap;html=1;strokeColor=#F8961E;fontSize=18;fontFamily=Garamond;" parent="1" vertex="1">
          <mxGeometry x="254.5" y="100" width="90" height="50" as="geometry" />
        </mxCell>
        <mxCell id="K1vJpyjOpzzqGWFiFT8--21542" value="Spimes" style="ellipse;whiteSpace=wrap;html=1;strokeColor=#F8961E;fontSize=18;fontFamily=Garamond;" parent="1" vertex="1">
          <mxGeometry x="228" y="140" width="90" height="50" as="geometry" />
        </mxCell>
        <mxCell id="K1vJpyjOpzzqGWFiFT8--21543" value="Objetos inteligentes" style="ellipse;whiteSpace=wrap;html=1;strokeColor=#F8961E;fontSize=18;fontFamily=Garamond;" parent="1" vertex="1">
          <mxGeometry x="305" y="118.5" width="180" height="71.5" as="geometry" />
        </mxCell>
        <mxCell id="K1vJpyjOpzzqGWFiFT8--21548" value="Objetos de utilização diária" style="ellipse;whiteSpace=wrap;html=1;strokeColor=#F8961E;fontSize=18;fontFamily=Garamond;" parent="1" vertex="1">
          <mxGeometry x="330" y="210" width="145.75" height="80" as="geometry" />
        </mxCell>
        <mxCell id="K1vJpyjOpzzqGWFiFT8--21545" value="Sensores e atuadores sem fio" style="ellipse;whiteSpace=wrap;html=1;strokeColor=#F8961E;fontSize=18;fontFamily=Garamond;" parent="1" vertex="1">
          <mxGeometry x="260" y="275" width="180.5" height="70" as="geometry" />
        </mxCell>
        <mxCell id="K1vJpyjOpzzqGWFiFT8--21547" value="WISP" style="ellipse;whiteSpace=wrap;html=1;strokeColor=#F8961E;fontSize=18;fontFamily=Garamond;" parent="1" vertex="1">
          <mxGeometry x="309.5" y="340" width="90" height="50" as="geometry" />
        </mxCell>
        <mxCell id="K1vJpyjOpzzqGWFiFT8--21546" value="NFC" style="ellipse;whiteSpace=wrap;html=1;strokeColor=#F8961E;fontSize=18;fontFamily=Garamond;" parent="1" vertex="1">
          <mxGeometry x="240" y="330" width="90" height="50" as="geometry" />
        </mxCell>
        <mxCell id="K1vJpyjOpzzqGWFiFT8--21550" value="Conectividade" style="ellipse;whiteSpace=wrap;html=1;strokeColor=#634E2F;fontSize=18;fontFamily=Garamond;" parent="1" vertex="1">
          <mxGeometry x="400" y="410" width="140" height="40" as="geometry" />
        </mxCell>
        <mxCell id="K1vJpyjOpzzqGWFiFT8--21551" value="Comunicação" style="ellipse;whiteSpace=wrap;html=1;strokeColor=#634E2F;fontSize=18;fontFamily=Garamond;" parent="1" vertex="1">
          <mxGeometry x="370" y="440" width="136" height="40" as="geometry" />
        </mxCell>
        <mxCell id="K1vJpyjOpzzqGWFiFT8--21553" value="&lt;i style=&quot;border-color: var(--border-color);&quot;&gt;Middleware&lt;br&gt;&lt;/i&gt;semântico" style="ellipse;whiteSpace=wrap;html=1;strokeColor=#2F615C;fontSize=18;fontFamily=Garamond;" parent="1" vertex="1">
          <mxGeometry x="630" y="410" width="155.5" height="70" as="geometry" />
        </mxCell>
        <mxCell id="K1vJpyjOpzzqGWFiFT8--21554" value="Integração inteligente" style="ellipse;whiteSpace=wrap;html=1;strokeColor=#2F615C;fontSize=18;fontFamily=Garamond;" parent="1" vertex="1">
          <mxGeometry x="513" y="190" width="143" height="70" as="geometry" />
        </mxCell>
        <mxCell id="K1vJpyjOpzzqGWFiFT8--21555" value="Tecnologias semânticas" style="ellipse;whiteSpace=wrap;html=1;strokeColor=#43AA8B;fontSize=18;fontFamily=Garamond;" parent="1" vertex="1">
          <mxGeometry x="730" y="130" width="160" height="70" as="geometry" />
        </mxCell>
        <mxCell id="K1vJpyjOpzzqGWFiFT8--21556" value="Inteligência no tratamento de dados" style="ellipse;whiteSpace=wrap;html=1;strokeColor=#43AA8B;fontSize=18;fontFamily=Garamond;" parent="1" vertex="1">
          <mxGeometry x="695" y="190" width="205" height="100" as="geometry" />
        </mxCell>
        <mxCell id="K1vJpyjOpzzqGWFiFT8--21557" value="Ambientes semânticos de execução" style="ellipse;whiteSpace=wrap;html=1;strokeColor=#43AA8B;fontSize=18;fontFamily=Garamond;" parent="1" vertex="1">
          <mxGeometry x="760" y="270" width="180" height="110" as="geometry" />
        </mxCell>
        <mxCell id="K1vJpyjOpzzqGWFiFT8--21558" value="IPSO (IP para objetos inteligentes)" style="ellipse;whiteSpace=wrap;html=1;strokeColor=#43AA8B;fontSize=18;fontFamily=Garamond;" parent="1" vertex="1">
          <mxGeometry x="370" y="530" width="200" height="90" as="geometry" />
        </mxCell>
        <mxCell id="K1vJpyjOpzzqGWFiFT8--21559" value="Internet 0" style="ellipse;whiteSpace=wrap;html=1;strokeColor=#43AA8B;fontSize=18;fontFamily=Garamond;" parent="1" vertex="1">
          <mxGeometry x="524.5" y="570" width="130" height="60" as="geometry" />
        </mxCell>
        <mxCell id="K1vJpyjOpzzqGWFiFT8--21560" value="&lt;i&gt;&quot;Web of Things&quot;&lt;/i&gt;" style="ellipse;whiteSpace=wrap;html=1;strokeColor=#43AA8B;fontSize=18;fontFamily=Garamond;" parent="1" vertex="1">
          <mxGeometry x="544" y="610" width="196" height="100" as="geometry" />
        </mxCell>
      </root>
    </mxGraphModel>
  </diagram>
  <diagram id="PiArqQsWe1o2zLzDvY-a" name="Page-2">
    <mxGraphModel dx="1509" dy="921" grid="1" gridSize="10" guides="1" tooltips="1" connect="1" arrows="1" fold="1" page="1" pageScale="1" pageWidth="850" pageHeight="1100" math="0" shadow="0">
      <root>
        <mxCell id="0" />
        <mxCell id="1" parent="0" />
        <mxCell id="mdKqmX3qbVH-SdxJsGCa-1" value="" style="ellipse;fillColor=#277DA1;opacity=60;strokeColor=none;html=1;fontColor=#FFFFFF;fontStyle=0" vertex="1" parent="1">
          <mxGeometry x="260" y="460" width="500" height="500" as="geometry" />
        </mxCell>
        <mxCell id="mdKqmX3qbVH-SdxJsGCa-2" value="" style="ellipse;fillColor=#F8961E;opacity=60;strokeColor=none;html=1;fontColor=#FFFFFF;fontStyle=0" vertex="1" parent="1">
          <mxGeometry x="100" y="170" width="500" height="500" as="geometry" />
        </mxCell>
        <mxCell id="mdKqmX3qbVH-SdxJsGCa-3" value="" style="ellipse;fillColor=#43AA8B;opacity=60;strokeColor=none;html=1;fontColor=#FFFFFF;fontStyle=0" vertex="1" parent="1">
          <mxGeometry x="410" y="170" width="500" height="500" as="geometry" />
        </mxCell>
        <mxCell id="mdKqmX3qbVH-SdxJsGCa-4" value="&lt;span style=&quot;font-size: 26px;&quot;&gt;&quot;Coisas&quot;&lt;/span&gt;" style="text;fontSize=26;align=center;verticalAlign=middle;html=1;fontColor=#FFFFFF;fontFamily=Helvetica;fontStyle=1" vertex="1" parent="1">
          <mxGeometry x="255" y="170" width="190" height="70" as="geometry" />
        </mxCell>
        <mxCell id="mdKqmX3qbVH-SdxJsGCa-5" value="&lt;span style=&quot;font-size: 26px;&quot;&gt;Semântica&lt;/span&gt;" style="text;fontSize=26;align=center;verticalAlign=middle;html=1;fontColor=#FFFFFF;fontFamily=Helvetica;fontStyle=1" vertex="1" parent="1">
          <mxGeometry x="565" y="170" width="190" height="70" as="geometry" />
        </mxCell>
        <mxCell id="mdKqmX3qbVH-SdxJsGCa-6" value="&lt;span style=&quot;font-size: 26px;&quot;&gt;&quot;Internet&quot;&lt;/span&gt;" style="text;fontSize=26;align=center;verticalAlign=middle;html=1;fontColor=#FFFFFF;fontFamily=Helvetica;fontStyle=1" vertex="1" parent="1">
          <mxGeometry x="409.75" y="890" width="190" height="70" as="geometry" />
        </mxCell>
        <mxCell id="mdKqmX3qbVH-SdxJsGCa-7" value="&lt;span&gt;&lt;font style=&quot;font-size: 44px;&quot;&gt;IoT&lt;/font&gt;&lt;/span&gt;" style="text;align=center;html=1;fontColor=#FFFFFF;fontSize=16;strokeColor=none;fontStyle=1;fontFamily=Helvetica;" vertex="1" parent="1">
          <mxGeometry x="464.5" y="491.5" width="80.5" height="60" as="geometry" />
        </mxCell>
        <mxCell id="mdKqmX3qbVH-SdxJsGCa-8" value="• RFID" style="ellipse;whiteSpace=wrap;html=1;strokeColor=none;fontSize=18;fontFamily=Garamond;fillColor=none;fontStyle=0" vertex="1" parent="1">
          <mxGeometry x="230" y="231.5" width="100" height="50" as="geometry" />
        </mxCell>
        <mxCell id="mdKqmX3qbVH-SdxJsGCa-9" value="• UID" style="ellipse;whiteSpace=wrap;html=1;strokeColor=none;fontSize=18;fontFamily=Garamond;fillColor=none;fontStyle=0" vertex="1" parent="1">
          <mxGeometry x="175" y="251.5" width="90" height="50" as="geometry" />
        </mxCell>
        <mxCell id="mdKqmX3qbVH-SdxJsGCa-10" value="• Spimes" style="ellipse;whiteSpace=wrap;html=1;strokeColor=none;fontSize=18;fontFamily=Garamond;fillColor=none;fontStyle=0" vertex="1" parent="1">
          <mxGeometry x="148.5" y="291.5" width="90" height="50" as="geometry" />
        </mxCell>
        <mxCell id="mdKqmX3qbVH-SdxJsGCa-11" value="• Objetos inteligentes" style="ellipse;whiteSpace=wrap;html=1;strokeColor=none;fontSize=18;fontFamily=Garamond;fillColor=none;fontStyle=0" vertex="1" parent="1">
          <mxGeometry x="225.5" y="270" width="180" height="71.5" as="geometry" />
        </mxCell>
        <mxCell id="mdKqmX3qbVH-SdxJsGCa-12" value="• Objetos de utilização diária" style="ellipse;whiteSpace=wrap;html=1;strokeColor=none;fontSize=18;fontFamily=Garamond;fontStyle=0;fillColor=none;" vertex="1" parent="1">
          <mxGeometry x="250.5" y="361.5" width="145.75" height="80" as="geometry" />
        </mxCell>
        <mxCell id="mdKqmX3qbVH-SdxJsGCa-13" value="• Sensores e atuadores sem fio" style="ellipse;whiteSpace=wrap;html=1;strokeColor=none;fontSize=18;fontFamily=Garamond;fontStyle=0;fillColor=none;" vertex="1" parent="1">
          <mxGeometry x="140" y="426.5" width="221" height="70" as="geometry" />
        </mxCell>
        <mxCell id="mdKqmX3qbVH-SdxJsGCa-14" value="• WISP" style="ellipse;whiteSpace=wrap;html=1;strokeColor=none;fontSize=18;fontFamily=Garamond;fontStyle=0;fillColor=none;" vertex="1" parent="1">
          <mxGeometry x="230" y="491.5" width="90" height="50" as="geometry" />
        </mxCell>
        <mxCell id="mdKqmX3qbVH-SdxJsGCa-15" value="• NFC" style="ellipse;whiteSpace=wrap;html=1;strokeColor=none;fontSize=18;fontFamily=Garamond;fontStyle=0;fillColor=none;" vertex="1" parent="1">
          <mxGeometry x="160.5" y="481.5" width="90" height="50" as="geometry" />
        </mxCell>
        <mxCell id="mdKqmX3qbVH-SdxJsGCa-16" value="• Conectividade" style="ellipse;whiteSpace=wrap;html=1;strokeColor=none;fontSize=18;fontFamily=Garamond;fontStyle=0;fillColor=none;" vertex="1" parent="1">
          <mxGeometry x="320.5" y="561.5" width="140" height="40" as="geometry" />
        </mxCell>
        <mxCell id="mdKqmX3qbVH-SdxJsGCa-17" value="• Comunicação" style="ellipse;whiteSpace=wrap;html=1;strokeColor=none;fontSize=18;fontFamily=Garamond;fontStyle=0;fillColor=none;" vertex="1" parent="1">
          <mxGeometry x="290.5" y="591.5" width="136" height="40" as="geometry" />
        </mxCell>
        <mxCell id="mdKqmX3qbVH-SdxJsGCa-18" value="&lt;i style=&quot;border-color: var(--border-color);&quot;&gt;• Middleware&lt;br&gt;&lt;/i&gt;semântico" style="ellipse;whiteSpace=wrap;html=1;strokeColor=none;fontSize=18;fontFamily=Garamond;fontStyle=0;fillColor=none;" vertex="1" parent="1">
          <mxGeometry x="550.5" y="561.5" width="155.5" height="70" as="geometry" />
        </mxCell>
        <mxCell id="mdKqmX3qbVH-SdxJsGCa-19" value="• Integração inteligente" style="ellipse;whiteSpace=wrap;html=1;strokeColor=none;fontSize=18;fontFamily=Garamond;fontStyle=0;fillColor=none;" vertex="1" parent="1">
          <mxGeometry x="433.5" y="341.5" width="143" height="70" as="geometry" />
        </mxCell>
        <mxCell id="mdKqmX3qbVH-SdxJsGCa-20" value="• Tecnologias semânticas" style="ellipse;whiteSpace=wrap;html=1;strokeColor=none;fontSize=18;fontFamily=Garamond;fontStyle=0;fillColor=none;" vertex="1" parent="1">
          <mxGeometry x="650.5" y="281.5" width="160" height="70" as="geometry" />
        </mxCell>
        <mxCell id="mdKqmX3qbVH-SdxJsGCa-21" value="• Inteligência no tratamento de dados" style="ellipse;whiteSpace=wrap;html=1;strokeColor=none;fontSize=18;fontFamily=Garamond;fontStyle=0;fillColor=none;" vertex="1" parent="1">
          <mxGeometry x="615.5" y="341.5" width="205" height="100" as="geometry" />
        </mxCell>
        <mxCell id="mdKqmX3qbVH-SdxJsGCa-22" value="• Ambientes semânticos de execução" style="ellipse;whiteSpace=wrap;html=1;strokeColor=none;fontSize=18;fontFamily=Garamond;fontStyle=0;fillColor=none;" vertex="1" parent="1">
          <mxGeometry x="680.5" y="421.5" width="180" height="110" as="geometry" />
        </mxCell>
        <mxCell id="mdKqmX3qbVH-SdxJsGCa-23" value="• IPSO (IP para objetos inteligentes)" style="ellipse;whiteSpace=wrap;html=1;strokeColor=none;fontSize=18;fontFamily=Garamond;fontStyle=0;fillColor=none;" vertex="1" parent="1">
          <mxGeometry x="290.5" y="681.5" width="200" height="90" as="geometry" />
        </mxCell>
        <mxCell id="mdKqmX3qbVH-SdxJsGCa-24" value="• Internet 0" style="ellipse;whiteSpace=wrap;html=1;strokeColor=none;fontSize=18;fontFamily=Garamond;fontStyle=0;fillColor=none;" vertex="1" parent="1">
          <mxGeometry x="445" y="721.5" width="130" height="60" as="geometry" />
        </mxCell>
        <mxCell id="mdKqmX3qbVH-SdxJsGCa-25" value="&lt;i&gt;• &quot;Web of Things&quot;&lt;/i&gt;" style="ellipse;whiteSpace=wrap;html=1;strokeColor=none;fontSize=18;fontFamily=Garamond;fontStyle=0;fillColor=none;" vertex="1" parent="1">
          <mxGeometry x="464.5" y="761.5" width="196" height="100" as="geometry" />
        </mxCell>
        <mxCell id="BtPQc6EwvThNieThUuEK-19" value="" style="shape=stencil(rVjZbttADPwavxK75J7PafofAeLURt04cNzr70tVkGpS1qgF+uYowxWPITmrnTy8H57e9jsO79fL+fP++/H5etjJhx3z8fWwvxyv+msnjzt5eDlf9p8u56+vz+Pfb08Dcvj15fxtOOHHaBeo8mDE4ef4IEeq7feTjyP+dHy9wQu1YvGNQlzHV+rB4EuiVNbxMRLbF5ROLQGDTNlGUAsJrxsMIVuXGk9O3jcoVJo1aNQE5EiIszHoTBXEkAKlZA0yReBSqtSqNwggrTkTN+8SA4PCJN0GXShnYNAp2KBrIwZ1qOqxDboolQD1WvAx5EoRxNASZRtD0lICl7Su0b5BynTEXYMeKUZjoIRPFRgIZUu+2CkBl7Su2VZaOwT1Q+/ENuhAgvFJHD6AOis++/MDCqBT9eczaB7FuwkTpvZbw3fLu0gCBlIM6q8tAcPWGV7QHb7hBHXLa8Ec6tNxM0uJQQBDQtnhy0bBmsNv+J/8+Q3MooFw/vyM8bG6/HScn9AdHhV4wFsCMWXcAMH6rxsQ8yEmh99oGLcNdNpjQktz+IgbLC8aGOe/LM7faEh2+Izz39nnB9fX9VeEfLvbwBsN1j3hBBesubWxOeGqw+f/iS9+yajmaagCs79zgoQSXmPFZlT0CeCELsriZkSYFMl9g+xrpjoTJVWXfbGsLhHuAZUTYtuy8iT01gQL2zIMOhApnHmOzBpKVw0IWkWXOB1YYasNss6pNOUumEWadTcrbrpjTZvGhU+o1Kp+nWJRDVMAmYbx5vJaofpVNrsB2eLk5MoE8A1dE1V4CXH0LrPoWbnkJDsAtPRoRQVPvVymGbiCZ/H4AvyfB/QNPgLiBb8BlYmoxsHPC8WjS91iAOcEJ+ryfEyhpf9CAcbr88PTTvzL/DNcUcv64kvyogMUj+4dwfNzE/9vl/ZtvP7484Xg5Xg6jR8Ybv/vvyjoo/FrhDz+Ag==);lineShape=1;fontStyle=0" vertex="1" parent="1">
          <mxGeometry x="212.50779595036443" y="320.57841880372393" width="92.33034029695972" height="17.8947930682208" as="geometry" />
        </mxCell>
        <mxCell id="BtPQc6EwvThNieThUuEK-21" value="" style="shape=stencil(lVfLctswDPwaXzHgE+Q5Tf8jM3FqT1074zh9/H3BqnJNUFo3N1neFYHFEgQ34eFt9/S63Xh+u5xPX7c/9s+X3SZ82ni/P+625/1FnzbhcRMeXk7n7Zfz6f34PP1+fWrI9vTt9L194efEc+RcI3n+Nb1gYv7z4vMEP+yPt3CmPODLOl7/ThbvIsALxWLwfz+wiA+JUuzwjhjgY7TxeGq/1vDJU60dPpAAfGYKqcNnCiDfLLN81/iZIiBIIC89IZMDFZBCuV9BU8hpnVB0BZOyJ5cBQeaSzoToKMo6oTL50BHS1YbLBE+lJ2QHk66JOHcEYViHmqn0sqpuCahUK5VeVv2ExwTjpKq1RyEpoVhCQUlrSH3SVWuP6lAp94XTNyFAQhgIUgGh2KQd4wbTQvZ2iYpkKtauLS2wRZXAwwqMZFLZo9UVmklITCGEEgpJV+i7kpopI12Fam9Xdfw9lbwlwByKbaw1UgVdoJWaLaFgM/k8rID9nYakA1JJN4S3sqLToVlNLEGANW7cfFPqjPytS5iYCkXkjTofODd2dVjXOGzSjCpX7QzQgsSllmGFittAZEsQ1CwLuYHg7+zRYmWFdfgwIVmVynUWWiYE2yzFzwZeJjh7juYA20Yptn+nMDeSZUIi6XPQeQjlUDxxP87owIXmH5HZatdpQ1sf8FLTpD/adeKLwN452y7gIjwWdSRjMyLy3KrWZj7T73G7Vw1DfwJlGJBKGHs81rTNxKbM85H3nzN3gl1vnOkTPA+HK4PuDLCX2aqJv67B9+JodeHXgxh4ArXV24f9OprB2I6RYS7dGrzvWh4aYQHuwVYZgnGwrQ+p4hl7EJLhLWEoE0NPDibgj1nszq30Hlwf/l2AX/aHw3R/vv3fXpj11XTZDo+/AQ==);lineShape=1;fontStyle=0" vertex="1" parent="1">
          <mxGeometry x="248.16355584534494" y="275.8991002961418" width="44.174042084530065" height="19.118780263054603" as="geometry" />
        </mxCell>
        <mxCell id="BtPQc6EwvThNieThUuEK-23" value="" style="shape=stencil(lVjLctswDPwaXzEkAZLgOW3/IzNxGk/TOOOkr78vVJeyCUnryc2WsMJ7AXLHd29P96/7XQpv76fjt/2vw8P7044/7VI6vDztT4d3+7Xjzzu+ezye9l9Pxx8vD+f/r/eT5PTr+/Hn9IXfZ1wgDRMohT/nB5FC+vfgy1n8+fByJS5U2iAeKIRt8RgoZy+fgXwmCU5eeVverM1lkE/EAuS1f67LCymQ50JVB3mlUEF4hFocwxn7F1YBmSk6QKEALCoWkNEii0GKAKD9ezOgUAMxrUI8msSJKqiJ2nwSWIlBlJSpjiYJUwFOq1k8ahClApzWRiUNAAu0AECLvrCzUgKV3bhHvQNKIgFRatJfz4BCBWnIxGPv1NADvQ4ovbdmgFACxWeAMuahViogca1SGqOkgQrSUEnrCOBev+sAqxynoVJATltHj4AWICCGmbJmhFIEpNQateoBFWWueVK1J6hH7XVOHlBQMbVu8RXgfxy2wlRH4ruKw2YmoleBeMNy3ZZO4OIoC0BCTlQSXiQCA3iRuYRSbRpcXCtOtflQPCChzFmURv62LlRkki58sLZFeZhjcgXIKA/NU5kB6o1yrd7pgAFu7E6BBoQ/lZp6QEM0YADntPae2jTJ+dDgatIWI2UKA2aBpB6gyCRdMalhshRZABB/L3YBA6D1ZKr+BQkIJgFRnwdokrXoAnBDwwcBxc9RmxCwvHPnuasZBIks90KYAUIZmZT9pNZ4a3lwGqoRGdIgK7uAogay/WhsoGp7JQIkvzGVin2wXd0BbuxkgeKYh9yIgdNqc3wsjSxUgQ+a+wY2A0wn6GlNPg+S+5hc343Vb31iGoBJlT1rsMBV16LuThB2RmkgD2Xej2YAw7Gbkx+KUeE6I4sTRBS4a9gxK428ZAdHBj6Yizz6YFFA577Yh/Ll3IfGup1D40jFDPeG6ZzrDllw+lj/NycugGCiH9DcW2lVPPh9leEyGfxqyH28b4hnb4yA0ITFaRLSytwdF3G0WQRPc6k7syUefNxhZIJrLcgOod8NXO5SFIrH5sTR0Ai+5CMx/Hr2xkT49Q/dA90Utx+XK6fHw/Pz+cbq+r2/orJH5+st/vwX);lineShape=1;fontStyle=0" vertex="1" parent="1">
          <mxGeometry x="324.68355400188807" y="257.2640096356305" width="48.881174060816" height="37.555290263349775" as="geometry" />
        </mxCell>
        <mxCell id="BtPQc6EwvThNieThUuEK-26" value="" style="shape=stencil(lVjLctswDPwaXzEEwec5Tf8jM3EaT9044zh9/H2hupRNUNrEN0VZUPBysQC5kbu354fX7ca7t9Px8H37a/d4et7Il433u5fn7XF30qeN3G/k7ulw3H47Ht5fHs9/vz5MyOnpx+HntMLvc1ytJHGK8u7P+Q1T4X8vvp7x+93LNT5SyQafC8AzxWLXr+v4Uoj7fDz5BPBCyXd4IXbr+FzISYcPFED+WdMNHT5RjOv4FCmkDl9h/rHY9dlTBARF5cP1AYkC2LEQKdeeUUcRpCSVck+RcvT/zXJAIDEBpX1zMUA5SX2AeCpg13xsGc8BiRLYNlUN9ywFRwl8gQvVXqdBfzRgSVnnvhBCbdJdDlCl9sqOQhkFMIVe2ioWpL1Kod/oJBQD0DZlI21dH+xzakpu+CwkYJsDVYPPzTyWdUSVO3xRb/EIz33+JZIH63srIjWbgGRqd1jNLAA+1Sp6VddAHlQmk/T5qxkzkhz5avEBCWjIXysb1QA5Z/EFFJmzxqL4CvhU2xnywXgZ8SB/Rzzkg/TjyKWBT/h7R34Y5u96PdcCe5/iq8UnoB9HXixeYP5hyMdDfkxrrQU6nLOtbMKDfFRvA16gPk3nU3yEeBnw0NIX6tFhPFu8wHr0Az4B/nlBnwX4s/I/4CvI39mGxG6W+JqAZPgAMEQV6EAomgucbdqKj8DQNVtv8R4X2CAIbEC34pPBCzSs0XDVssEGs+V/mpbR2GT5KQEO9zqEGTzDhiStPVw1eA8KPlqDzp4y2N/U2tU8oORmMcuHATt7Jw/1xq7183nCypRQgG8NZQ744AvR9uxQmsuvzaF2rBTYBCYXMqNxbW+WA0LT5BwQcUC1MhI8B4m0XZ3PAxkOipqxcUaVFipkPdMYa+cKKyFyG7XnAKUBlJqO2kYaOo47pFUVd8+Sjtdg3/RgaaZRTQisP83O/fq+2f3awdgUA8NhUa3EdBvXTu6rB/to8KjZjxcHrp3El/HDxQTuTVOrcLetn4b88fq5GLzH65dq8KgGLr36c/xf9epLADpDLwRwG1A/mRHf+IvnA+wnGWWsuGHHGFbYqIgPrqpuvQr7EK8Pl3u3p91+f762u/6/vafTV+c7Prn/Cw==);lineShape=1;fontStyle=0" vertex="1" parent="1">
          <mxGeometry x="195.19706322357843" y="395.8991002961418" width="74.81329397455521" height="54.35209986456061" as="geometry" />
        </mxCell>
        <mxCell id="BtPQc6EwvThNieThUuEK-30" value="" style="shape=stencil(rVfZbhsxDPyafSUoUdTxnKb/ESBObdS1A8fp8ffl1lVscbODFOjbej2j5TE8NMndy/bheTNFfjmfjl83P3aP5+0kn6YYd4ft5rQ729Mk95PcPR1Pmy+n4+vh8fL7+WFGzk/fjt/nE35eeK1QLjMr8q+/bxo1+fPm84Ww3x1uCDVT1JGQqcR1QolU0kgIlPI6IQul0aRaSOo6QYU4jIRIMawTUqDKA6Eo5bROEPZO50KJ1wmR/Re0UgE+BCEZnVamAAiFigx4c6oV4EJPUsdLIkYGkYwxjZkC8NgiVAd8qF1ZK3geAxQiMbQ/jv5ahIHqFhri/mIFXtXBI3A2+eCYN0A+ieoCDk5XEnZwFHn1SmASEJncTb3CkfSt3EfdBGJ4ukuT1To2xqmmh2rN1TaKkgKwXXvbuMJRH0nU2MEVi8Abk8DpQi16Y1DLIRUH5wbLI7tAFkXw4NMkGD4GkqlBuPjiUxiZ4ssjwjQFX6uokaUu748WX1jAgatK2rztUJHN266wPIIPZAUiyP3b16xGCHeBDJT/H9w0M2Y12ICCKpDFAEEjNvXyeSsQywXoHZnyaI+8FcH7A5D9CEkMayoskptqX33eXxLMgLFotcBOL9YyRkJWSiAHSfx2V6yvgN1LExW3Gdk6iEShxGMnqQrneEm+l9QGh+e8/I1OtwQT16oft7bkRpA423hD8wQkPSNo9IQM6tgIpXgCquR5CXdLc4UrbeDFQmUMBXGdP5E9oYICNUJ1Xjdo0xym5glIrvN5C0LBqW4LkxrKXO094paATKqLDYXxAPnnG9UHCPZwvcA97fb7y/3v9n9/4bNXl8ui3P8G);lineShape=1;fontStyle=0" vertex="1" parent="1">
          <mxGeometry x="137.69367587201464" y="473.451246582802" width="27.972199261547484" height="34.734638413510176" as="geometry" />
        </mxCell>
        <mxCell id="BtPQc6EwvThNieThUuEK-35" value="" style="shape=stencil(lVfbbtswDP2avBKSqBufu+4/CjRdgmVJkWa3vx8NQ6lFO8cz4Adb5hEp8vCiHT99HF7e97vgPm7Xy/f97+Pr7bDjL7sQjufD/nq86duOn3f89Ha57r9dLz/Pr+P3+8sgObz9uPwadvgz4mqlKgMquL/jilQaPvX5OgJOx/MUIORdB9AVqRAQYg8IVBwAVJJeQylU0haTiqeINBSqtQPkSAlpSMSpA6RCMQKAp1R6gIOAki0gMhUPAI64PwMXYqAhM+XcA9RIfgxIqcW1AUJuoVwExNKYcwd4EqCBa/NJA3iNTH4MCMql3iQfKYDABUe5N8l78uAMngL3TiIPDNIg+P7ElASJu56o6h+8uzGeGLjTN1c0cUelAN9QFiOOdo8UqxF3YPdsQ3s/+3LCEGcjDsOku9mzRmCNRt240kHP+0DOMBMWCJX3vbwuACKoPdkSpwL36HlTzxyGwaot7z7FYTEhZ0oDCRBP5GSDONuygI3xszrVYvcgSVIyniw4BdmIe0AcpWG/u/IA8NLZxqI0Q+WpFZcJiwErmaolPUqSRGWWsYBj2mRnGQs8I615TMoHzliZVScwNmyV51mkKiVAG77/nnQGxGLtbqVPWZ9gs0qZvMlxtRGYlJNtD1p0K+By0aLRa1AvRKChCBWTW7mNEct1RDt+ryEGWDjF27ofhSqiUWqUn4xWDhBpmE/7QOvwhpgn0grCf46HChADwAOoArLhHh5xFVA3DdHezUaHlTl9UBEtIONDmBasKw4BdD9nARFkkJQFQAb8ltz2mwAE+TXZlJs4bhnBtkiuIoIdhNaM0rlMNh3bLQCQY+usFq+Eroodn1bIsf2auA7Ql89b6dvxdBovtdP/9harS+MNmJ//AQ==);lineShape=1;fontStyle=0" vertex="1" parent="1">
          <mxGeometry x="274.02765873340127" y="475.9099473541919" width="9.039661890874612" height="27.936323860634257" as="geometry" />
        </mxCell>
        <mxCell id="BtPQc6EwvThNieThUuEK-38" value="" style="shape=stencil(lVjLctswDPwaXzEkQRLkOU3/IzNxak/dOOO4r78vVFWyCFqr5ibLCwiPBbnkjh/eD09v+11w79fL+ev+5/H5etjxp10Ix9fD/nK86tOOH3f88HK+7L9czt9fn8ffb08Dcnj6dv4xePg12jmqfjAK7vf4QiJJ+fvm84g/HV8X+Eiutnih4tfxQqH1XxxxWMd7Tzm1BkzRAQMhV1qDTAK+EJi4/UJ15OO6Ac9/zwZMAYTEQrEtUk0kwCCmqSazgZCXdYPE5EtnUNcNsiPpQkI5ZKHcNq56GJIwibR9SJQBk6QSGyoVSsCgRIpt48TBpEshyY2BliGBpGug0BokR4GBQaTa5sCVKiBfnbk5G7gpq/sGYhsXwkT4+waFYts4r2wFjVMDaentJw+r+DYiXUPA+Ci+WHxCJarkksEHFE+lEA3eoZ5Vih0e+88Wj5YLxRdv8LCeyhg2+IJIWi3n/MTa/8YLYlwXT9iq/79wb/gEpnKop/VfcPymX2FKaJUP1n/F/p31j3bAns+BIvJfJnc3vEP1vzOPaWN+s8E7VB+N385XxvFUO7+M+enF4OGCpftAh8f+0wf9i82XN/hs880b81VM/T0SLG7Ob9Fg0LD7BjhjUyHdAgQtiWXatBabTEEcEjvzrCGhIiVLorixy7BlUfJw7EuXdNZ1CCSt8sS364SESbetCZbaDmbxcJJVShuVpooEjY6KLkM9LQPqg+oZ0zjtDKpSLxwX7FrTpmY5vRF+Tf1aMau6DrQ61C6JDENSBW8kvwo3JEF87rRphdzQUwi3/NZDRQCiJds9X08tHswDU25TLniRUQnR4vXYhSZaJVOx+AQq5KZoF/gAeKScaQsqmSrYpBQfLD4DTnQrnuKREO/9JygqnGWQ4tHJwNnVSPHo6OGm6i2O1Yihzmqc4RgO65k6/+iw5eweOOBh/B+7FtjG68PtDuLleDqNVxjL/+2dhb4a7zv48Q8=);lineShape=1;fontStyle=0" vertex="1" parent="1">
          <mxGeometry x="363.81218420758046" y="603.9643651376889" width="73.93876960973974" height="31.120998712685836" as="geometry" />
        </mxCell>
        <mxCell id="BtPQc6EwvThNieThUuEK-52" value="" style="shape=stencil(nVhJchsxDHyNrijuy9lx/uEqy5EqiuWSle33AaNwNADFVpKbPEZzsDSA5mz8w/vu6W27ceb9fDp+3n7fP593G/9h49z+dbc97c/8a+MfN/7h5Xjafjodv74+X/5+e2qW7deX47d2wo8LzlJ0DeTMz8sDQ8b/fvDxYn7Yv67MK8UqzC2VMje3hWIU9oGsmdu7SMEI+0gVnO+9dr+Qq3P74MgX6b8lm+eAaMmrgAMlBKhUggQUKm4OSJmyDNl5CqAEOVD0ElAoxDmgGAoySZy2P07eBgSqMgZfyYEYylhmPgLUoVoKVtbZUAXEqJ6SjCEmCgkAIjmZpWQpWwBIPesLIFFCgEwhC0BmLoEs1YWbCyBSBHVgQE2S3YYcCrpSkIXjUmYMUGzlUqKGs4bng6RrxezjVygytbBQ1JWyAtTetdOovQZkVIhKJmoAdKlo9q3yMK21GV6BAJnKEERCec2dOyuAQ2nKevZVPJkaIGqAx4Ag+dqiQnkdZl87Aq2f0rfTCnCn51RHcJ9X1BGckzwAML9dGVxCla6aTC1oDNAucVoxoMpB0+iIO6hmDcgYUFQMnAbc1HFouYR71BYNQFKjeSzJ9xc96oeWg6XOwyjjQYMBaXhDuLNTnC4EmsetR4fpGtDm/Q+AkYUoFWos7pcs2Vci2TubV04BXnMZTYHYybks0oTfsDiwWtUFAYIe3yzTPHLJk5FBJ9el8kwBqYaIuT+5rbGGLRddb5HbgNT1ziLKUleOtwGevALYvihvK9GqtYCPcMllfoMCGEoghibB5GDiC0EGaY1FtyjfUJBkYt2Z1NjIvfa3rxC2t/wC8FBjeadVnGWtC0Yf35GKkn3dx9klS8mZhLdu35jXO1kCKWUOqIxCrWS0enNd2EzMQ1HmCZ7ukjJH0tD0TXw1N+DyxvtCyTw4hwYpbO84YxQP4FWbfZcTxXSxNDFX6m659U3M1WYykPXMWKvMDaIkucEcnP6PHyHumvOP6/eOl/3hcPlcsv6//j7Cjy7fVvzjLw==);lineShape=1;fontStyle=0" vertex="1" parent="1">
          <mxGeometry x="486.4220586483043" y="712.421464041206" width="38.37406025550694" height="33.21241751809023" as="geometry" />
        </mxCell>
        <mxCell id="BtPQc6EwvThNieThUuEK-54" value="" style="shape=stencil(rVnbUhsxDP2avGpky9dn2v4HM4SSKSVMoLe/r7YZb2J5fYCZvoVFZ23dj7Q7uXl5uH3e7zy/vJ6O3/a/DnevDzv5tPP+8PSwPx1e9ddOPu/k5v542n89HX883Z3/fr5dJJdf348/lzf8PuOYYl1Anv+0Bxz/PfhyFn88PF2JO8rRiNcyFxdy3IkLCRAP5Pq3R8puLh4puk68UAF3z+RCJ+48JSBfqBr5RCUB23D7dwOouaQCgKfa6+sTtn4c7MmUGAAy+dIDAqUAAJWi7wGFxM8BqmLtnRActJI6ORiAagWCQm1Scw8o7RXbgEqp90N0lABAPIVe6RiaZ7YBkaTXIaqVEKCQ7z2dNJMyyARHrtchRWLguCBU+kROmTIIvpAo9OGdmUQAoNgTstoN6KBWl96sObQztwGqg7lSIkGAZKM1q6FRxajk+1gqWu+ADsk3q68A7LgUqEgPEIogHxY39TqUSB74Qd2U+pwumRgUgSytzK2AQgnooFYPffBVJoeuVFoXWAHqe3CCGtH4oXroaTWivZJAT6sRU5+iNcAEUiOmYAGonZRKoc+HGtuTTYDaxJkrJRh8apOYLQAlkNqkDiegDqo39mwBFZ2gCWn8kGFo1NFKGTquDtW7rk1sBihsARHkgwKslXJL2inAhLeWGdRFmVtGXiESig09wmhd37JrKRYQsV0NdbsYbuoItoCKwlVdLQMAK+0HHQo+wVC45ZJYaR4AHiS1uqmacNW2B/jPJgCVvo0rZZxyo9K5kfb3mjXDzr44bjjBI6XH0MgwIZbgG5IacbiN8M64klXLEtUPjMj3Zo5GrMRYBtD0s1FoKhwINkpZbexg6oghqeuHyvGVHf4XIm2kdUJ2iq3UXdsJaTEQxbc84YcuVODgpL2anQU4xGhWz74zS5VvRKM0br3KaOLQqx3mTGKCY51bZqzMzN9KgQLmfcUAlKehETzZkUA9g9iAclfrOKYMlFZ2bJcCFTP83Oj5FZ0WEBrK8C2dVq4JklRHvWKGDoF8Q6cUNgzfkwMn6BwkZuhg8mDo0EnLkF11JdrM6CxnNg/LkIAG2GJp3DL84XnU9VbS8RLOo9Ksvk68WizRdomtHxIenCTb/UwSWI4l2paSGMaSeDsSqCsrAPhq+XfE46VPNlojw1WFDy1d1nVLbr6fbYBiH0vqGZSirrZgXgEMa+uyd+vDW/Ac5IINDcHjpfOWAfncGMts12cy7rLrnCwTQx8ZrkDmmuxeVnUK4EJhWFZy4/uTzWzsw0L1RU6218GjrrPTOm4LbLuCh22HGzm9iKO2xpZd4GLKNv5d23vNxL0RR34dSKeD61W2NMS142bifRRoEEBDsl3+B1BA2VZoblucmZuSEXfQMmLfjlUNxYqDAP7gd443xfXH5ZPK/eHx8fxF5vr/9hOMPjp/vpHPfwE=);lineShape=1;fontStyle=0" vertex="1" parent="1">
          <mxGeometry x="421.18606452574045" y="755.8815000517347" width="112.71111114405754" height="41.08036448725631" as="geometry" />
        </mxCell>
        <mxCell id="BtPQc6EwvThNieThUuEK-61" value="" style="shape=stencil(lVjZctswDPwav2J4gAT5nKb/kZk4jadpnHGSHn9fqB4qIihuJ2+yhDVxLIElD/Hm9fHu5XgI7vXtcv5+/HW6f3s8xC+HEE7Pj8fL6U2fDvH2EG8ezpfjt8v5/fn++vvlbrFcnn6cfy7/8PuKC+TKAgruz/WFI+f+vfh6NX86PW/MhbI35sxzc5/Ipc7eUyxze/3sXWcfKGZgXyhJZx+pytw+CsXen0zs5/acqXJnX9uLXfuUKYc+XqYE8pkzudoH7FpF9gvANmINIaU5oATyfcliJK4AUGyO2FEGSa2RYh80K01Almqm0mc1cav7PqBaGqVKOQLeuZXGa6EZMkmXqP1GyKWFNQOYrSAe+lSVq7kHMAlKk1Do0yRCCQESpdgBiqOIK5f7oEskD8hUPUlfiKIERi5pHfqglV4FpFU/S59WXTOBtBam2rukia4YYAqnpURZUoATCxDQNTSJsVgAdClYlzYE3kd4KmlYAvmknXXwKYNGo9TJwwpoQyxcY1uIglcIYgGMgtZhY1wSnFdHJVtAQjF44gEQUFrDkFaBG0IBlq4KQDFEEmcBHnQypWuMFoCGtAKkWkBBLulU7xu+Fi6gkaIAbwGCt5wM5At4U1surf15llYzqRVQkEuhfd7uOBR0sFpmAaDCqTaqFgCzpPQeOhkjLaAbaAgasnVviyYUg2tTdgNAeubzAG7NegWsnWpGvtKntUjL2z5A7I5bZgyqg1LNrBBgDDrSDPmkttrPBjX3LkkmQXKGW+vdiA2PVhiEqMoZJI0VYLK0CCYk4nIb/BtJlhEgtea+AlzTsrMsld6ltPaRmToxg5pLGwAzLqV+xzEWfVpX7mOIjAHBSt2Am3GOVkzrISoBtqbVgVVsZCj6OFEwhzgPhWtMVkuvR4r9U5zYqZvbgNm3d20mr1WAU92z7TEREk/siSnANuzbn32YB7D5VYiJNQekdiTFmKPWMkgkTxWEqpl0xhwd9dx4nEeCbTiEaeyAysNZwTWRO/M9GHNUVc2MvelAqn+YrQ72T28puQYz4wxbc+D7J29p/muuDx8XQg+np6frfdL2u71A0lfXy6d4+xc=);lineShape=1;fontStyle=0" vertex="1" parent="1">
          <mxGeometry x="562.9349367537559" y="756.7639566349401" width="27.1606377621439" height="43.479189929008584" as="geometry" />
        </mxCell>
        <mxCell id="BtPQc6EwvThNieThUuEK-63" value="" style="shape=stencil(lVhbbhsxDDyNfwnqLX2n6T0CxGmMpnHgpK/bl1tDjklpZ+G/tZezosjhcxfu3p8f3vY7z+8fp+P3/e/D48fzLnzZeX94fd6fDh/ytAv3u3D3dDztv52OP18fz7/fHhbJ5enH8dfyhT9nXKDQFpDnv+c/mJr7/8fXs/jL4VWLRyWeyFUozkq8UclI3GtlnKfmoXzW8pkSVCcmJS+3TQnJFyMfKQH9o9Xf1w35pr8fPBVg/US1aPkM7VnIOSUfsXcrFe2umIjburxjytoBsZEHDlj8WTV/xCcIIFc2gEIFqSQKBAXIjiqvA7yopJ2WE3TaYlWvAbXfas4iR1G7oXjiCACZ2AAuTJnzyJHTly5iJaBSzBT0HapEArBSct1NF4CHVEqZsgEk8gCQxSY6GGrpSs4BpbvpAmg9mc2jIXQyX7KR6wE7B1SK2qxNPhFA/AwJqcX+iTmgWCu1BDNSq1SNSpUYeLo1m7EF4NEJkqKHEyKwkgBMFhMACtEFYPzQeqJaA9RoARFQQ14nZwEZW4mHEyoCVBsPn7eaA4pNZNsAE6KLSgiQJ1YqIKYFkHgwK2CrACyXWs+FqwBdsBb+bqhULQDlJQG0bAEeZG8xaxxUQjVueT3Qm9GlK+Uh4hhHnBsujbqqhczeAiKyklCNLQDFg2MmHrjBG0cMIYfS93KJgUwZn+CHE+qGI4oFNMSNSyq99JOfdlhj0xhCDYXQrYCah1tL/wHYVB0Vc+vUvT+vcrmnleuiBexahl6g+d4Hziu1NHEmSBn2uZltI13Fl8BKKfZ25wLIFFHnLRVCV7kaew81B0hvr+kqhkaXDtVWOWkn4GgVbOEVzyDyyTDFBhB64zgHRMqaS7l1z8wBTEHnviwZHVjJDSVF2jrkBycaa7am2s9cGznMTCMTBOqNi53hIm4FUp+ormYgFA1CG82LpRkvwKaTGQ4lJUdNf19mxIoMZFtQmeoyqG/c317NuCjU2Jb05QuApWxHk40ZffDvxg5A5G9ZMUg+1+bBC4yhDOIBmm2vwBu2d3b5goZhtuMI9/XKinix4g4Sja0yqGtxfSi4EgfKONuBYHFvF0dYGW/3EPiqwqhygyFlqrPKIDcNOzJMgts3cFhcHj6XfU+Hl5fzrvD6vV0Oyl/nxWK4/wc=);lineShape=1;fontStyle=0" vertex="1" parent="1">
          <mxGeometry x="645.5499421561769" y="405.46658132318066" width="29.10011914538186" height="53.825666242382404" as="geometry" />
        </mxCell>
        <mxCell id="BtPQc6EwvThNieThUuEK-81" value="" style="shape=stencil(lVfLctswDPwaXTEEwec5Tf8jM3FqT1074zht8/eBqlFrQp5leZNlrIjXLsBJHt72T6+7ybu36+X8fffr8HzdT/Jl8v5w2u8uh6s+TfI4ycPL+bL7djm/n56X369Ps+X89OP8c/7C7wVXHUmYUd59LG+Yavnz4utifzycbuxLoehae0/iACATpwbgBQMScW0A4igJAEQKBlAoZwAIa4grIGTyAQISN4AYqSQIMFlNQswwBmmzlCrOUiEXG0AOFIFLlSm0hcuFKgi66vfaGIqnik7Iq8d/AYkKCJqdI9ci9BsRlHo+oq1cLSQepKlSMSdUcuAETYpLFhABIbSwki2ggqjnXmvb9SYPdxHCtsH1iAKC4LwS5gYQQJo2HNW0wsoRZ2vvQGs4G7IW0gOGKt98a5/WFNz3RyibMkeYIZ8oVguQCDxSWfQW4IBLsRBvXEKALBRkxCVll/BI0PP3ik1rBI2nXZPNCbhuc9uYGHBjVE8lWADqPNUg2fATtXbaDKwOeaKnNMjPZMdDRwLmGbvhJxIZdnYmdmTMbzzCOjkqxKP23vKzMxp0pLdV7syeQmlouLFWYGh8skqSmeh4QHOkZCY6XgEUIG2NO0uGAlwrSZ01RmOIbVd0FiWV1WIAeBXjDZ07y57WYWydrDareF1V4hhBYqh4miJfjL0DGsyb/cKtDt7nQSZXjL2Akkm0xFElADwOkTgYeyRdMawt9n/2KdiZg/3J3o5NHG/RTWEkn7o35/b7uF66D5rNBffD6PWob68P/+5iL4fjcbnK3f5v7276arn3yeMn);lineShape=1;fontStyle=0" vertex="1" parent="1">
          <mxGeometry x="730.2176404038923" y="345.74178382536684" width="1.5647191922155463" height="31.662799875336628" as="geometry" />
        </mxCell>
        <mxCell id="BtPQc6EwvThNieThUuEK-87" value="" style="shape=stencil(lVnbUlsxDPyavGpk+f5M6X8wQyiZUsIEevv7ys34cCznbOAtTbWxJa1Wktn5m9fHu5f9Tvj17XT8vv99uH973PkvO5HD8+P+dHjTTzt/u/M3D8fT/tvp+PP5/vzvl7tm2T79OP5qv/DnjHNUuYGE/56/YOL4/4uvZ/Onw/PKPJFLxrzwtrlz5OJg7ygj+0icB3uhCOzbbUd7T7EC+2TtI3TXe/Iy2Ceq4PeD+usG+0q+APtKUsf4CDlwQMz2Qhqy4EDCAlU/AgpVAMjLBZYUCBUPAIXK6LNkYgAogdJICu/IJwColkU+UgInVKEwRslXyuCEGqwPwVPOAJAojYUQMmUBgEJuvFJ0lAIAVOIyAiJ55HS1YY2aGUBuBZjaT0ICouRYy80gIkXsRBmdSHonDAgj+5SPDCpI41oNIJJDYSokowTkTBWdkCmMgMIUESBRGBNRpEf6MkATawABXyn0AlsAiQrit1h+lwJlozrLby3CgvjNvYQX5XMwD/p7MnJJL+nBCXpjUxDVU0CyoVo9Jk7jhthaYg/iAlB6AxXQNOUxcZp7eILvurUAlF0g00q1YABa5hhgOlyrQSTftXfMFaAC2VCAId9KF7Y6RAjTEaDLtYrkCYCaVu5MWAEyCJMC3ARI+ASefAiAru2EyQfBAKMCtcI+qgDLPhVXFNZJ+hoAJ64EC0B9NFfbeK+dUO14csUH5befCoJRyXEv4Q/mQQHpU5luJzgLQFxSgEyAjBK3TC/rekBcWlz8aMUV6/QHinoWGqgb+YLQQGXKJFMiEpDjVqNTmJC6XgQIBshco1jJPgdogm/CqpdEZNJObcKauvJcBsgkrjox4S7nTMmFrp5bfdQbH3yffrc6tS05geQruVNtATCcK3XaMLKh38AhTovaDEClDyxbE1Mex5PmFVohvCWfBhrOxsGuQZpK1ORaXs0J3MfrLUAdAa0TozFxcXE1fcNxPXeqred7tKSoaoxOtw0Czfe5z0frHeXKCeOV2hqEEpctl3TRgvN9svKtq1zAC0EZ5VuXxYypYSpO11G4+wnF0QddeCsKK9vE6UpdkWokyyVd2hGXynQljx+L8hRWyXgkY9sVxcOFN/nOzaUrqo6g55lofXARhlXTZBYCJ3DC0qhHI5WwsWsMy+hChs8OEmz5RPiu4Up/J1mIRB698Pk+D76/2AkIkJueHAQufSo/Y4odlHnuzq3eM8Gvs10z8PMn2wGGYSy5Twbv5gmbO2Mesbl96UUvANMeyTCv00jLsFuy3RMYDghsScm9d26YV3t3Rhy2j7B48tWBa3oyB4H85Av7VXP98P6Y/3B4ejr/LWD9//bxX786/+HA3/4D);lineShape=1;fontStyle=0" vertex="1" parent="1">
          <mxGeometry x="796.7207021424492" y="315.24407269376115" width="45.29742937367892" height="131.75221590374517" as="geometry" />
        </mxCell>
        <mxCell id="BtPQc6EwvThNieThUuEK-91" value="" style="ellipse;fillColor=none;strokeColor=#FFFFFF;html=1;fontColor=#FFFFFF;fontStyle=0;strokeWidth=6;" vertex="1" parent="1">
          <mxGeometry x="411.20000000000005" y="170" width="500" height="500" as="geometry" />
        </mxCell>
        <mxCell id="BtPQc6EwvThNieThUuEK-92" value="" style="ellipse;fillColor=none;strokeColor=#FFFFFF;html=1;fontColor=#FFFFFF;fontStyle=0;strokeWidth=6;" vertex="1" parent="1">
          <mxGeometry x="261.10000000000014" y="460" width="500" height="500" as="geometry" />
        </mxCell>
        <mxCell id="BtPQc6EwvThNieThUuEK-93" value="" style="ellipse;fillColor=none;strokeColor=#FFFFFF;html=1;fontColor=#FFFFFF;fontStyle=0;strokeWidth=6;" vertex="1" parent="1">
          <mxGeometry x="100.22000000000003" y="170" width="500" height="500" as="geometry" />
        </mxCell>
        <mxCell id="BtPQc6EwvThNieThUuEK-68" value="" style="shape=stencil(lVjLctswDPwaXzEASfBxTtP/yEycxlPXzjhJH39fqB7KJmRt0pssL0gQWABLbeLd6/PDy3YT+PXtdPy+/bV7fHvexC+bEHaH5+1p92ZPm3i/iXdPx9P22+n4fng8/355mJDT04/jz2mF32c7Jk6TUeA/5xetUi7/3nw94/e7wxVeSOuIjyRxHR+JecDXSirr+EQiI14pAH+UchzxQrGt4wvp6E8pFID/rXs74wM1sL4E4jAY5EoRHFiUuIwGtgPKQPVHVjsC2CEE0jwaCAVwhpCpjqRISolBki3mo0uxUUrAIBOPYY2RFBgkpqaDgWWyApdS9sSzMGQQJYuJY54FWjIwyJ04s0GCVM3S/54NmGoFBpmkjeSjBoJUxFNJe+Zv45dZoAz8qZaEsfgDBQV4pTLmQGCAGpOM6zMl4E9LVIPDC4hPa701XPAMOGR49f4wXr+o9wfE3/DV+xMxvhWHR5QWZl8E3Hdc3WDsFPLhARyjKQGHpgAFh1fsjyaHLzhhUT0+QLz482ZAaMOzJ7Qif2qv76sCQIQ2vOtBfZp8Es9UEEENnx0+oYKsvuAZFvwUz+TwjPMbfQEz5o8u8Di/xfNf8PrVFzAalFO9eLwCMXG7IDGhmycQo4QZ3hM0InVjAfIFjMaw4bNfH6lFwydP6A8K8v/waVlgFTUs9oQLfcSuTTDX4EJPyG281fe4fsQTO3t/lCKe8GkkXIH+m4LII75BgppEKS6eAQo5E0FlHGGmZxGjTWYVp5pa17NrQs7VsN0RUNEnWRg0KAtMjNbRIKYugG8bGGnGqJo8LUiBl14ls0GGg8Zok8ZGqgFKIZnzOhvYtQPdIhbaLyfYWiT4VpQb3oF9sy4RF48f9qVicnsxUU2OIsFOYVy/WgwAPnk1Wltf4XbS/DC2q3EFRJV+L5zxFlCUY3/fmMYhuoqSBI8v4LwLdX/Rpyv4uvAHXVzZF8HVOFwx0EWA8AZO/U0HAAFl36wvAn4FLwt/FPrjv600qO8X4mDSU6A1LvG1j/9P+oO/9XyMt4fLh6Wn3X5//i51/b//EGWvzh+x4v1f);lineShape=1;fontStyle=0" vertex="1" parent="1">
          <mxGeometry x="388.16288575252634" y="509.05295788543754" width="72.40412983034237" height="50.43921142958287" as="geometry" />
        </mxCell>
        <mxCell id="BtPQc6EwvThNieThUuEK-70" value="" style="shape=stencil(nVjLUhswDPyaXDW25OeZtv/BDKFkSgkT6OvvKzeTgOSwht5C8MbSSlpJ3sjV093143bD4en5sP+2/bW7eb7byKcN8+7hbnvYPeunjXzeyNXt/rD9etj/eLg5/v14PU6OT9/3P8cv/D7iUqUeBorDn+M3gUr698WX4/n73YM9H8Wcz5QZnC+UmzkfA0mGgFgtQCh3AMjU3A2VpEBAsTdwJK4QkKMFZGJEUqZkSeVOAd8gbADC1BGtakCxgEIN38D2hhQpBgBoxDbQg7f4NiAzZZcZAbKUq2cpZwrA6aI3OECnBnKpVKo2cCVRBiZVZd3SWhqMQ51YGj8hbwOa+FyqhbgBQKZqTaqdIohDK1RtpFuEJd00DvYGNRLlUmtUuwVoDYIS7eFUkGeARgaw1JmCpbV1SgggVLMB6J0d+NCzd1rvFASoFGzgxp2ggHqjZFnqCaZGDIGCze+usoF4nbJPAQKSSU2O7AEwN1Q2JpMaqiAFdA9AgdCKTMk1iDMPl3VDeW/TFUiO9YrJ6wpokurzVQEZtBQRr98KQFWt8l5d5FRoQKhFxTd7AEo/lXfPUjul/GVaA6XqAciHEqhFD4gAUOMFpxGg8alrvtMkLXonlgune/HDw4LWkf7BA1DgRiI4lnBqqDK5AWiRfCrHcapRlN7atGryAFRA2gSDH+IWNVovKBOSAZ0rZQIgoZHup4eFlEm6oExILGUaaBZy/HFA8m1u0SLkPGy/swmpkoUPtTlpUwXhRppUNqwwLVp1Ym/SGAaQfItvpItxY+i9raDFQDMANpfGyISWFPFOj6EM+RC9CujYJzjS3UZ6DJYocOe97fXoCmRDdxixLI3hGNSDbobROj3GbwCI53H+9YAPaNXV0I0nY4UATk+z8dhRAKtMxerYYgliz+liy2K/7C7WuGmhWeyJWru2EhaLKHsVXmy67AO2WKWnhr7Y1aMX+cVjgLZzm6L4sWGan/FbRjhJ58vxBIxn3zXVdtQ0PZfhJAFv5b5kdx6teXFaYNR7lArRz1K4g6v9zbuLzmumJ28/skc7U/b2I3+1Ut2khvlUJYj+91G4dABxCo2z4T8ezhbn9cPLK93t7v7++Mj3+v/+VU+/Or4Iyue/);lineShape=1;fontStyle=0" vertex="1" parent="1">
          <mxGeometry x="504.68170899179404" y="412.42442541056243" width="2.0550501745518215" height="75.81757265275785" as="geometry" />
        </mxCell>
        <mxCell id="BtPQc6EwvThNieThUuEK-69" value="" style="shape=stencil(lVfLctswDPwaXTEEwOc5Tf8jM3FqT1074zht8/eB6koNIWtT3yRyl8Qb4KB3L9uH580g4eV8On7f/No9nreDfhlEdoft5rQ729eg94PePR1Pm2+n4+vh8fL//DAix68fx5/jCb8vvFYplZEl4e3vSqMU/qx8vRD2u8NHQiYOPUEpN0BgatwRaiLhdUItVFNHKJUkAYJQjj0hUACEkin2N2SmUNcJuZHWjpCYKrCSnZe1I0ShAkRKSrG3kkaKuk6IiULrCFKIyzpBC4XecRKoAYK0ScWJwJkEiCQ6CTAThCIwK5fJr3MsTXa+jhfi3kiZqgA/E/dei5SA/IFi7sWnAnwcSJy2UyqtwFkcXDOCB3VwBkkTvHMDVahqSA6eQHSa7NnBFQqj4uAMhUnq4AF4NVCJHg7d1LyqKNXNzP50FPPsg2AOohW4+tMLUHUBZ6jqQph54f9UZVj5zZA+PTIM4JIcvNwSBAwtYyHm4RnC2cse4w3pYYaEllkkX4PCBJ8eGQrjip7pDvqtxavPVQbxvih6uHWaqD7ecfLV5uFQ1Zvgxfd9mfhr7SP3fkrQrdaeXAjbAmqYSqX3FJtCwPZqxnc9IVJGhDJ1pJnQKAKRbEpws5TpjPIqRd+SVWFAZJk6x9xkcW7ZbKZ9xCXLfVBISqHYR0Vq1IDfqk4qzmNCnWbQ6wTb7m+wOxmIZCMv9+WnRjjTNtPBTc0CY8mmcDc1j5M68MNIKJ6AbuCwKFt2Bkrm8YrqCQJcPRLEE1B7tO26IKAmM24vREIj4fi6WdzQQF+ybd+DA655xvDN5jNGvWLYhpxdqfJCbeSJ6uv2aDn0arv5Xfg5wT7+PUOfdvv95RX7cd8/W23p8uTV+3c=);lineShape=1;fontStyle=0" vertex="1" parent="1">
          <mxGeometry x="557.8236316024975" y="509.44273625696246" width="64.36411786006671" height="50.047006086729596" as="geometry" />
        </mxCell>
      </root>
    </mxGraphModel>
  </diagram>
</mxfile>
